# AST/ASF file generated using VICON BodyLanguage
# -----------------------------------------------
:version 1.10
:name VICON
:units
  mass 1.0
  length 0.45
  angle deg
:documentation
   .ast/.asf automatically generated from VICON data using
   VICON BodyBuilder and BodyLanguage model FoxedUp or BRILLIANT.MOD
:root
   order TX TY TZ RX RY RZ
   axis XYZ
   position 0 0 0  
   orientation 0 0 0 
:bonedata
  begin
     id 1 
     name lhipjoint
     direction 0.621036 -0.695554 0.361275 
     length 2.46325 
     axis 0 0 0  XYZ
  end
  begin
     id 2 
     name lfemur
     direction 0.34202 -0.939693 0  
     length 6.54784  
     axis 0 0 20  XYZ
    dof rx ry rz
    limits (-160.0 20.0)
           (-70.0 70.0)
           (-60.0 70.0)
  end
  begin
     id 3 
     name ltibia
     direction 0.34202 -0.939693 0   
     length 7.84737   
     axis 0 0 20   XYZ
    dof rx
    limits (-10.0 170.0)
  end
  begin
     id 4 
     name lfoot
     direction 0.0790693 -0.217241 0.97291   
     length 2.59747   
     axis -90 7.62852e-016 20   XYZ
    dof rx rz
    limits (-45.0 90.0)
           (-70.0 20.0)
  end
  begin
     id 5 
     name ltoes
     direction 1.53572e-011 -4.21898e-011 1   
     length 1.29919   
     axis -90 7.62852e-016 20   XYZ
    dof rx
    limits (-90.0 20.0)
  end
  begin
     id 6 
     name rhipjoint
     direction -0.602353 -0.708375 0.367935   
     length 2.41867  
     axis 0 0 0  XYZ 
  end
  begin
     id 7 
     name rfemur
     direction -0.34202 -0.939693 0   
     length 6.92065   
     axis 0 0 -20   XYZ
    dof rx ry rz
    limits (-160.0 20.0)
           (-70.0 70.0)
           (-70.0 60.0)
  end
  begin
     id 8 
     name rtibia
     direction -0.34202 -0.939693 0   
     length 7.88883   
     axis 0 0 -20   XYZ
    dof rx
    limits (-10.0 170.0)
 end
 begin
     id 9 
     name rfoot
     direction -0.0768692 -0.211196 0.974416   
     length 2.43714  
     axis -90 -7.62852e-016 -20   XYZ
    dof rx rz
    limits (-45.0 90.0)
           (-20.0 70.0)
  end
  begin
     id 10 
     name rtoes
     direction -1.53575e-011 -4.21933e-011 1   
     length 1.22113   
     axis -90 -7.62852e-016 -20   XYZ
    dof rx
    limits (-90.0 20.0)
  end
  begin
     id 11 
     name lowerback
     direction 0.0197937 0.98943 -0.143655   
     length 2.16931   
     axis 0 0 0   XYZ
    dof rx ry rz
    limits (-20.0 45.0)
           (-30.0 30.0)
           (-30.0 30.0)
  end
  begin
     id 12 
     name upperback
     direction -0.00183968 0.999975 0.00684288   
     length 2.17221   
     axis 0 0 0   XYZ
    dof rx ry rz
    limits (-20.0 45.0)
           (-30.0 30.0)
           (-30.0 30.0)
  end
  begin
     id 13 
     name thorax
     direction -0.00950244 0.997208 0.0740685   
     length 2.22549   
     axis 0 0 0   XYZ
    dof rx ry rz
    limits (-20.0 45.0)
           (-30.0 30.0)
           (-30.0 30.0)
  end
  begin
     id 14 
     name lowerneck
     direction 0.0218238 0.996215 0.0841425   
     length 1.77269   
     axis 0 0 0   XYZ
    dof rx ry rz
    limits (-20.0 45.0)
           (-30.0 30.0)
           (-30.0 30.0)
  end
  begin
     id 15 
     name upperneck
     direction -0.00430652 0.994214 -0.107332   
     length 1.76534   
     axis 0 0 0   XYZ
    dof rx ry rz
    limits (-20.0 45.0)
           (-30.0 30.0)
           (-30.0 30.0)
  end
  begin
     id 16
     name head
     direction -0.00328946 0.998959 -0.0454998  
     length 1.82634  
     axis 0 0 0   XYZ
    dof rx ry rz
    limits (-20.0 45.0)
           (-30.0 30.0)
           (-30.0 30.0)
  end
  begin
     id 17 
     name lclavicle
     direction 0.970962 0.239191 0.00450212  
     length 3.84872  
     axis 0 0 0   XYZ
    dof ry rz
    limits (-20.0 10.0)
           (0.0 20.0)
  end
  begin
     id 18 
     name lhumerus
     direction 1 -4.48966e-011 5.74696e-028   
     length 5.22771   
     axis 180 -30 -90   XYZ
    dof rx ry rz
    limits (-60.0 90.0)
           (-90.0 90.0)
           (-90.0 90.0)
  end
  begin
     id 19
     name lradius
     direction 1 -4.4896e-011 4.25109e-027   
     length 3.45251   
     axis 180 -30 -90   XYZ
    dof rx
    limits (-10.0 170.0)
  end
  begin
     id 20
     name lwrist
     direction 1 -4.48971e-011 1.15382e-027   
     length 1.72626   
     axis -5.52449e-016 90 90   XYZ
    dof ry
    limits (-180.0 0.0)
 end
  begin
     id 21 
     name lhand
     direction 1 -4.49034e-011 2.30765e-027   
     length 0.552119   
     axis -1.47248e-015 90 90   XYZ
    dof rx rz
    limits (-90.0 90.0)
           (-45.0 45.0)
  end
  begin
     id 22 
     name lfingers
     direction 1 -4.48951e-011 4.61529e-027   
     length 0.445133   
     axis -2.94495e-015 90 90   XYZ
    dof rx
    limits (0.0 90.0)
  end
  begin
     id 23
     name lthumb
     direction 0.707107 -6.34991e-011 0.707107   
     length 0.639124   
     axis -90 45 2.85299e-015   XYZ
    dof rx rz
    limits (-45.0 45.0)
           (-45.0 45.0)
  end
  begin
     id 24 
     name rclavicle
     direction -0.97424 0.222511 -0.0366699   
     length 3.73439  
     axis 0 0 0   XYZ 
    dof ry rz
    limits (-10.0 20.0)
           (-20.0 0.0)
  end
  begin
     id 25 
     name rhumerus
     direction -1 -4.48956e-011 -4.97258e-028  
     length 5.2398   
     axis 180 30 90   XYZ
    dof rx ry rz
    limits (-90.0 60.0)
           (-90.0 90.0)
           (-90.0 90.0)
  end
  begin
     id 26 
     name rradius
     direction -1 -4.4897e-011 -1.72611e-027   
     length 3.48042   
     axis 180 30 90   XYZ
    dof rx
    limits (-10.0 170.0)
  end
  begin
     id 27 
     name rwrist
     direction -1 -4.48976e-011 1.15382e-027   
     length 1.74021   
     axis -5.52449e-016 -90 -90   XYZ
    dof ry
    limits (-180.0 0.0)
  end
  begin
     id 28
     name rhand
     direction -1 -4.48963e-011 2.30765e-027   
     length 0.618713   
     axis -1.47248e-015 -90 -90   XYZ
    dof rx rz
    limits (-90.0 90.0)
           (-45.0 45.0)
  end
  begin
     id 29
     name rfingers
     direction -1 -4.4888e-011 4.61529e-027   
     length 0.498823   
     axis -2.94495e-015 -90 -90   XYZ
    dof rx
    limits (0.0 90.0)
  end
  begin
     id 30
     name rthumb
     direction -0.707107 -6.34968e-011 0.707107   
     length 0.716213   
     axis -90 -45 -2.85299e-015   XYZ
    dof rx rz
    limits (-45.0 45.0)
           (-45.0 45.0)
  end
:hierarchy
  begin
    root lhipjoint rhipjoint lowerback
    lhipjoint lfemur
    lfemur ltibia
    ltibia lfoot
    lfoot ltoes
    rhipjoint rfemur
    rfemur rtibia
    rtibia rfoot
    rfoot rtoes
    lowerback upperback
    upperback thorax
    thorax lowerneck lclavicle rclavicle
    lowerneck upperneck
    upperneck head
    lclavicle lhumerus
    lhumerus lradius
    lradius lwrist
    lwrist lhand lthumb
    lhand lfingers
    rclavicle rhumerus
    rhumerus rradius
    rradius rwrist
    rwrist rhand rthumb
    rhand rfingers
  end

#!OML:ASF G:\JayActor3\Patient Classification 1\Patient 1\Session 5\male.ASF
:FULLY-SPECIFIED
:DEGREES
168
root 47.9189 16.3427 -5.53309 -74.2991 88.3927 -72.979
lowerback 0.526436 -1.35237 0.31846
upperback 2.33269 -1.78537 -0.0483949
thorax 2.08356 -0.87687 -0.250644
lowerneck -9.02445 -0.0398963 1.97596
upperneck 11.9764 -0.472572 1.49438
head 5.08494 -0.0161763 0.110886
rclavicle 6.8705e-015 3.18055e-015
rhumerus -30.2366 -5.84666 -86.4569
rradius 27.9227
rwrist 1.2323
rhand -18.7811 -6.72349
rfingers 7.12502
rthumb 7.5164 -36.5699
lclavicle 6.8705e-015 3.18055e-015
lhumerus -29.3681 0.572477 87.0846
lradius 24.1187
lwrist 16.2054
lhand -17.0779 13.5993
lfingers 7.12502
lthumb 9.16021 43.3804
rfemur -15.7374 4.80718 21.5954
rtibia 42.3156
rfoot -19.5071 -10.2012
rtoes -0.202508
lfemur 0.571636 8.16362 -20.1726
ltibia 15.7628
lfoot -13.1202 4.56364
ltoes -4.79318
169
root 47.8866 16.3431 -5.55163 -68.0297 88.3236 -66.7295
lowerback 0.58732 -1.34675 0.304557
upperback 2.35155 -1.77718 -0.0414092
thorax 2.06943 -0.872931 -0.234323
lowerneck -9.12244 -0.0195933 2.00432
upperneck 12.1763 -0.447555 1.44682
head 5.16338 -0.00200512 0.0933896
rclavicle -1.26725e-014 3.18055e-015
rhumerus -30.2159 -5.74962 -86.4884
rradius 28.0328
rwrist 1.12355
rhand -18.7233 -6.78237
rfingers 7.12502
rthumb 7.57226 -36.6268
lclavicle -1.26725e-014 3.18055e-015
lhumerus -29.3166 0.572924 87.08
lradius 24.1007
lwrist 16.1926
lhand -17.0749 13.6203
lfingers 7.12502
lthumb 9.16308 43.4012
rfemur -16.1684 4.78168 21.4627
rtibia 42.7272
rfoot -19.1292 -9.9816
rtoes -0.63495
lfemur 0.394214 8.51268 -20.2087
ltibia 15.8257
lfoot -13.0711 4.36649
ltoes -4.69589
170
root 47.8539 16.3438 -5.57005 -62.299 88.2313 -61.0228
lowerback 0.648566 -1.34082 0.291072
upperback 2.3653 -1.76873 -0.0318841
thorax 2.04993 -0.868926 -0.215558
lowerneck -9.21047 -0.00147862 2.02137
upperneck 12.3655 -0.425292 1.41453
head 5.237 0.0111083 0.0823064
rclavicle 5.00689e-015 9.93923e-016
rhumerus -30.2019 -5.65756 -86.5141
rradius 28.1323
rwrist 1.02345
rhand -18.683 -6.82378
rfingers 7.12502
rthumb 7.61112 -36.6668
lclavicle 5.00689e-015 9.93923e-016
lhumerus -29.272 0.57019 87.079
lradius 24.0795
lwrist 16.1883
lhand -17.0806 13.6211
lfingers 7.12502
lthumb 9.15757 43.4022
rfemur -16.603 4.74839 21.3321
rtibia 43.13
rfoot -18.7446 -9.81264
rtoes -1.19046
lfemur 0.210323 8.85829 -20.2426
ltibia 15.8901
lfoot -13.0234 4.1752
ltoes -4.60655
171
root 47.8208 16.3446 -5.58852 -57.1751 88.1274 -55.9266
lowerback 0.705814 -1.33613 0.274078
upperback 2.37768 -1.76194 -0.0231233
thorax 2.03132 -0.865824 -0.195727
lowerneck -9.29402 0.0144707 2.03051
upperneck 12.5427 -0.405977 1.39345
head 5.30626 0.0229347 0.0758106
rclavicle -1.66234e-014 1.59028e-015
rhumerus -30.1892 -5.57778 -86.5332
rradius 28.2179
rwrist 0.932281
rhand -18.6562 -6.84445
rfingers 7.12502
rthumb 7.63701 -36.6866
lclavicle -1.66234e-014 1.59028e-015
lhumerus -29.2311 0.56251 87.0803
lradius 24.0586
lwrist 16.1971
lhand -17.0906 13.5988
lfingers 7.12502
lthumb 9.14793 43.3804
rfemur -17.0367 4.70029 21.1933
rtibia 43.5219
rfoot -18.3685 -9.70294
rtoes -1.95853
lfemur 0.0178378 9.19762 -20.284
ltibia 15.9613
lfoot -12.9808 3.98998
ltoes -4.52473
172
root 47.7875 16.3452 -5.60687 -52.6058 88.0081 -51.3877
lowerback 0.758059 -1.331 0.258191
upperback 2.38851 -1.75466 -0.0135379
thorax 2.01393 -0.862477 -0.175781
lowerneck -9.369 0.0287274 2.02481
upperneck 12.7068 -0.38868 1.38996
head 5.37013 0.0340402 0.0770991
rclavicle -2.64632e-014 5.36719e-015
rhumerus -30.1816 -5.51056 -86.5455
rradius 28.2938
rwrist 0.854475
rhand -18.6415 -6.84337
rfingers 7.12502
rthumb 7.65123 -36.685
lclavicle -2.64632e-014 5.36719e-015
lhumerus -29.1945 0.544645 87.0842
lradius 24.0419
lwrist 16.2212
lhand -17.0988 13.568
lfingers 7.12502
lthumb 9.14002 43.35
rfemur -17.465 4.64672 21.0525
rtibia 43.8995
rfoot -18.041 -9.64003
rtoes -3.01672
lfemur -0.18717 9.5242 -20.3279
ltibia 16.0498
lfoot -12.9498 3.82024
ltoes -4.44606
173
root 47.754 16.3452 -5.62519 -48.6369 87.8769 -47.4526
lowerback 0.803386 -1.32833 0.243905
upperback 2.39839 -1.75078 -0.00240795
thorax 1.99942 -0.860822 -0.155353
lowerneck -9.45049 0.0406479 2.00449
upperneck 12.8747 -0.374627 1.40152
head 5.43641 0.0439985 0.0852806
rclavicle 9.77772e-015 3.77691e-015
rhumerus -30.175 -5.44787 -86.5537
rradius 28.355
rwrist 0.785705
rhand -18.6414 -6.8187
rfingers 7.12502
rthumb 7.65132 -36.6603
lclavicle 9.77772e-015 3.77691e-015
lhumerus -29.1618 0.528855 87.0865
lradius 24.0292
lwrist 16.2515
lhand -17.1103 13.5264
lfingers 7.12502
lthumb 9.12891 43.3089
rfemur -17.8827 4.58374 20.9102
rtibia 44.2603
rfoot -17.7896 -9.57978
rtoes -4.38312
lfemur -0.410736 9.84263 -20.3726
ltibia 16.1657
lfoot -12.9335 3.65688
ltoes -4.35949
174
root 47.7204 16.3445 -5.64315 -45.2095 87.7324 -44.0633
lowerback 0.836688 -1.32598 0.234127
upperback 2.40933 -1.74742 0.00901748
thorax 1.99263 -0.859344 -0.137476
lowerneck -9.54075 0.0519954 1.98302
upperneck 13.0453 -0.361784 1.41538
head 5.50513 0.0535236 0.0943307
rclavicle 7.26806e-015 -2.98177e-015
rhumerus -30.1682 -5.39761 -86.5607
rradius 28.406
rwrist 0.724264
rhand -18.6554 -6.77992
rfingers 7.12502
rthumb 7.63778 -36.622
lclavicle 7.26806e-015 -2.98177e-015
lhumerus -29.1309 0.510011 87.085
lradius 24.0228
lwrist 16.2906
lhand -17.1248 13.4636
lfingers 7.12502
lthumb 9.11496 43.2466
rfemur -18.286 4.52389 20.7713
rtibia 44.6016
rfoot -17.6444 -9.47011
rtoes -5.99894
lfemur -0.659017 10.1557 -20.4135
ltibia 16.3178
lfoot -12.9366 3.49938
ltoes -4.25697
